<?xml version="1.0" encoding="UTF-8" standalone="no"?>
<svg
   xmlns:dc="http://purl.org/dc/elements/1.1/"
   xmlns:cc="http://creativecommons.org/ns#"
   xmlns:rdf="http://www.w3.org/1999/02/22-rdf-syntax-ns#"
   xmlns:svg="http://www.w3.org/2000/svg"
   xmlns="http://www.w3.org/2000/svg"
   xmlns:sodipodi="http://sodipodi.sourceforge.net/DTD/sodipodi-0.dtd"
   xmlns:inkscape="http://www.inkscape.org/namespaces/inkscape"
   version="1.1"
   id="Capa_1"
   x="0px"
   y="0px"
   viewBox="0 0 739.63041 185.76096"
   xml:space="preserve"
   sodipodi:docname="climatecontrol-text.svg"
   width="739.63037"
   height="185.76096"
   inkscape:version="0.92.4 (f8dce91, 2019-08-02)"><metadata
   id="metadata45"><rdf:RDF><cc:Work
       rdf:about=""><dc:format>image/svg+xml</dc:format><dc:type
         rdf:resource="http://purl.org/dc/dcmitype/StillImage" /><dc:title></dc:title><cc:license
         rdf:resource="http://creativecommons.org/licenses/by/4.0/" /></cc:Work><cc:License
       rdf:about="http://creativecommons.org/licenses/by/4.0/"><cc:permits
         rdf:resource="http://creativecommons.org/ns#Reproduction" /><cc:permits
         rdf:resource="http://creativecommons.org/ns#Distribution" /><cc:requires
         rdf:resource="http://creativecommons.org/ns#Notice" /><cc:requires
         rdf:resource="http://creativecommons.org/ns#Attribution" /><cc:permits
         rdf:resource="http://creativecommons.org/ns#DerivativeWorks" /></cc:License></rdf:RDF></metadata><defs
   id="defs43" /><sodipodi:namedview
   pagecolor="#ffffff"
   bordercolor="#666666"
   borderopacity="1"
   objecttolerance="10"
   gridtolerance="10"
   guidetolerance="10"
   inkscape:pageopacity="0"
   inkscape:pageshadow="2"
   inkscape:window-width="1920"
   inkscape:window-height="1016"
   id="namedview41"
   showgrid="false"
   fit-margin-top="20"
   fit-margin-left="20"
   fit-margin-right="20"
   fit-margin-bottom="20"
   inkscape:zoom="1.6415389"
   inkscape:cx="442.73606"
   inkscape:cy="-57.75484"
   inkscape:window-x="0"
   inkscape:window-y="27"
   inkscape:window-maximized="1"
   inkscape:current-layer="Capa_1"
   inkscape:snap-text-baseline="false"
   showguides="true"
   inkscape:guide-bbox="true"><sodipodi:guide
     position="170.46857,-10.45923"
     orientation="1,0"
     id="guide181"
     inkscape:locked="false" /><sodipodi:guide
     position="185.69818,83.355177"
     orientation="0,1"
     id="guide183"
     inkscape:locked="false" /><sodipodi:guide
     position="180.21552,37.057157"
     orientation="0,1"
     id="guide185"
     inkscape:locked="false" /></sodipodi:namedview>

<g
   id="g10"
   transform="matrix(0.73182353,0,0,0.73182353,22.866943,18.483658)"
   style="stroke-width:1.36644959">
</g>
<g
   id="g12"
   transform="matrix(0.73182353,0,0,0.73182353,22.866943,18.483658)"
   style="stroke-width:1.36644959">
</g>
<g
   id="g14"
   transform="matrix(0.73182353,0,0,0.73182353,22.866943,18.483658)"
   style="stroke-width:1.36644959">
</g>
<g
   id="g16"
   transform="matrix(0.73182353,0,0,0.73182353,22.866943,18.483658)"
   style="stroke-width:1.36644959">
</g>
<g
   id="g18"
   transform="matrix(0.73182353,0,0,0.73182353,22.866943,18.483658)"
   style="stroke-width:1.36644959">
</g>
<g
   id="g20"
   transform="matrix(0.73182353,0,0,0.73182353,22.866943,18.483658)"
   style="stroke-width:1.36644959">
</g>
<g
   id="g22"
   transform="matrix(0.73182353,0,0,0.73182353,22.866943,18.483658)"
   style="stroke-width:1.36644959">
</g>
<g
   id="g24"
   transform="matrix(0.73182353,0,0,0.73182353,22.866943,18.483658)"
   style="stroke-width:1.36644959">
</g>
<g
   id="g26"
   transform="matrix(0.73182353,0,0,0.73182353,22.866943,18.483658)"
   style="stroke-width:1.36644959">
</g>
<g
   id="g28"
   transform="matrix(0.73182353,0,0,0.73182353,22.866943,18.483658)"
   style="stroke-width:1.36644959">
</g>
<g
   id="g30"
   transform="matrix(0.73182353,0,0,0.73182353,22.866943,18.483658)"
   style="stroke-width:1.36644959">
</g>
<g
   id="g32"
   transform="matrix(0.73182353,0,0,0.73182353,22.866943,18.483658)"
   style="stroke-width:1.36644959">
</g>
<g
   id="g34"
   transform="matrix(0.73182353,0,0,0.73182353,22.866943,18.483658)"
   style="stroke-width:1.36644959">
</g>
<g
   id="g36"
   transform="matrix(0.73182353,0,0,0.73182353,22.866943,18.483658)"
   style="stroke-width:1.36644959">
</g>
<g
   id="g38"
   transform="matrix(0.73182353,0,0,0.73182353,22.866943,18.483658)"
   style="stroke-width:1.36644959">
</g>
<g
   id="g109"
   transform="matrix(0.73182353,0,0,0.73182353,20,20)"
   style="stroke-width:1.36644959"><g
     transform="translate(3.9175339,-2.072)"
     id="g8"
     style="stroke-width:1.36644959">
	<g
   id="g6"
   style="stroke-width:1.36644959">
		<path
   inkscape:connector-curvature="0"
   id="path2"
   d="m 99.60612,79.429 c -14.657166,0 -26.58623,11.683269 -26.58623,26.04974 0,14.36647 11.92602,26.06344 26.58623,26.06344 14.65488,0 26.57786,-11.69697 26.57786,-26.06344 0,-14.368754 -11.92298,-26.04974 -26.57786,-26.04974 z m 0,46.88071 c -11.770783,0 -21.34082,-9.34936 -21.34082,-20.83173 0,-11.476284 9.570037,-20.814985 21.34082,-20.814985 11.76545,0 21.33549,9.338701 21.33549,20.814985 0,11.48541 -9.5708,20.83173 -21.33549,20.83173 z"
   style="fill:#010002;stroke-width:1.36644959" />
		<path
   inkscape:connector-curvature="0"
   id="path4"
   d="m 174.69389,77.21 -0.97,-0.344 -3.783,-9.019 0.412,-0.927 c 11.442,-25.947 10.658,-26.723 8.754,-28.606 l -15.264,-14.888 c -0.623,-0.616 -1.714,-1.052 -2.663,-1.052 -0.855,0 -3.461,0 -26.004,10.21 l -0.902,0.404 -9.301,-3.747 -0.376,-0.923 c -10.593,-26.246 -11.685,-26.246 -14.322,-26.246 h -21.556 c -2.627,0 -3.826,0 -13.653,26.294 l -0.369,0.956 -9.251,3.772 -0.884,-0.369 c -15.257,-6.435 -24.164,-9.695 -26.487,-9.695 -0.945,0 -2.04,0.422 -2.67,1.041 l -15.274,14.931 c -1.94,1.911 -2.741,2.709 9.301,28.119 l 0.444,0.945 -3.783,9.004 -0.927,0.358 C -1.7041099,87.814 -1.7041099,88.824 -1.7041099,91.533 v 21.112 c 0,2.713 0,3.837 26.9169999,13.485 l 0.963,0.34 3.783,8.983 -0.404,0.92 c -11.445,25.961 -10.719,26.662 -8.768,28.599 l 15.239,14.913 c 0.641,0.616 1.743,1.052 2.684,1.052 0.852,0 3.45,0 26.004,-10.203 l 0.902,-0.426 9.309,3.765 0.365,0.934 c 10.608,26.24 11.699,26.24 14.337,26.24 h 21.563 c 2.706,0 3.822,0 13.66,-26.315 l 0.372,-0.956 9.266,-3.754 0.884,0.365 c 15.246,6.453 24.147,9.706 26.458,9.706 0.938,0 2.044,-0.408 2.681,-1.041 l 15.303,-14.96 c 1.925,-1.922 2.724,-2.713 -9.337,-28.094 l -0.447,-0.956 3.779,-8.969 0.902,-0.354 c 26.906,-10.432 26.906,-11.449 26.906,-14.158 V 90.659 c -0.007,-2.716 -0.007,-3.836 -26.923,-13.449 z m -6.657,45.04 -4.946,11.764 c -0.379,0.895 -0.358,1.922 0.068,2.82 3.482,7.283 8.085,17.415 9.985,22.404 l 0.537,1.417 -12.805,12.526 -1.342,-0.447 c -5.071,-1.718 -15.815,-6.077 -23.649,-9.405 -0.805,-0.34 -1.814,-0.365 -2.67,-0.011 l -11.993,4.849 c -0.898,0.365 -1.603,1.092 -1.94,1.986 -3.386,9.126 -7.247,18.735 -9.176,22.865 l -0.626,1.342 h -18.177 l -0.637,-1.267 c -2.38,-4.731 -6.807,-15.203 -9.913,-22.923 -0.333,-0.859 -1.031,-1.564 -1.9,-1.925 l -12.036,-4.874 c -0.805,-0.329 -1.9,-0.293 -2.724,0.072 -7.727,3.536 -18.123,8.049 -23.069,9.853 l -1.374,0.512 -12.812,-12.54 0.497,-1.406 c 1.718,-4.874 6.088,-15.249 9.52,-22.983 0.379,-0.87 0.394,-1.829 0.025,-2.713 l -4.942,-11.739 c -0.376,-0.895 -1.102,-1.585 -2.022,-1.911 -7.831,-2.795 -18.478,-6.8 -23.3589999,-8.994 l -1.364,-0.626 v -17.64 l 1.328,-0.637 C 11.26689,90.375 21.89189,86.059 29.92289,82.956 c 0.884,-0.34 1.575,-0.998 1.94,-1.865 l 4.967,-11.764 c 0.379,-0.905 0.358,-1.933 -0.061,-2.827 -4.141,-8.661 -8.335,-18.095 -9.981,-22.414 l -0.544,-1.421 12.798,-12.515 1.338,0.447 c 4.95,1.657 15.668,5.977 23.692,9.398 0.848,0.351 1.789,0.358 2.652,0.011 l 11.996,-4.871 c 0.87,-0.365 1.578,-1.102 1.911,-1.986 2.845,-7.637 6.925,-18.045 9.173,-22.858 l 0.623,-1.342 h 18.177 l 0.651,1.285 c 2.351,4.713 6.778,15.203 9.888,22.948 0.347,0.855 1.052,1.557 1.9,1.9 l 12.014,4.853 c 0.83,0.344 1.933,0.315 2.702,-0.043 7.78,-3.554 18.227,-8.077 23.116,-9.856 l 1.381,-0.483 12.809,12.49 -0.497,1.406 c -1.746,4.924 -6.109,15.292 -9.516,22.983 -0.387,0.877 -0.387,1.854 -0.018,2.756 l 4.942,11.76 c 0.372,0.891 1.102,1.585 2.022,1.918 9.427,3.343 19.022,7.015 23.345,8.947 l 1.385,0.623 v 17.608 l -1.317,0.644 c -4.86,2.323 -15.561,6.642 -23.445,9.695 -0.851,0.314 -1.578,1.019 -1.929,1.867 z"
   style="fill:#010002;stroke-width:1.36644959" />
	</g>
</g><path
     sodipodi:nodetypes="sccccccssscccccsscccccssscsscccc"
     style="stroke-width:1.36644959"
     id="path118"
     d="m 205.02906,33.140862 h -8.09098 C 193.49665,24.889186 186.60017,18.632634 175.45517,16.852017 166.98899,15.49826 144.76642,15.205555 144.76642,15.205555 H 62.981424 c 0,0 -22.222563,0.292705 -30.688028,1.646462 -11.144999,1.780617 -18.041484,8.037169 -21.48291,16.288845 H 2.7187924 c -3.16952741,0 -2.69337593,2.133032 -2.69337593,5.30256 0,3.169527 1.52384853,6.176037 4.69337573,6.176037 H 8.1574949 C 7.4329085,55.067851 10.445323,66.30468 15.504514,74.647467 28.100839,95.424444 55.123607,104.24862 82.5223,76.0744 91.219489,67.133291 95.452939,55.653554 97.520521,48.129334 c 0,0 0.357271,0.230863 0.546668,-0.360285 0.784849,-2.45355 3.064071,-4.43289 5.747191,-4.43289 h 0.11909 c 2.61784,0 4.85186,1.919078 5.68764,4.284386 0.22671,0.644236 0.57967,0.361719 0.58972,0.401177 2.06184,7.542873 6.29601,19.159636 15.01472,28.122985 27.39869,28.172783 54.42146,19.250323 67.01778,-1.525219 5.08,-8.378658 7.72582,-19.994997 7.2265,-30.000029 h 3.55922 c 3.16953,0 5.17042,-2.133039 5.17042,-5.302566 0,-3.169528 -7.1e-4,-6.176031 -3.17041,-6.176031 z M 109.69931,34.877 c -1.80644,-0.63204 -3.74633,-1.018725 -5.76584,-1.018725 h -0.11909 c -2.01952,0 -3.9594,0.386685 -5.765844,1.018725 -0.747543,-3.051872 -1.990819,-9.323196 -3.694673,-12.192845 H 113.3947 c -1.70457,2.869649 -2.94784,9.140973 -3.69539,12.192845 z"
     inkscape:connector-curvature="0" /></g><text
   xml:space="preserve"
   style="font-style:normal;font-variant:normal;font-weight:normal;font-stretch:normal;font-size:62.92346191px;line-height:0%;font-family:'IBM 3270 Narrow';-inkscape-font-specification:'IBM 3270 Narrow';letter-spacing:0px;word-spacing:0px;fill:#000000;fill-opacity:1;stroke:none;stroke-width:0.37933123px;stroke-linecap:butt;stroke-linejoin:miter;stroke-opacity:1"
   x="181.51971"
   y="147.83466"
   id="text83"><tspan
     sodipodi:role="line"
     id="tspan81"
     x="181.51971"
     y="147.83466"
     style="font-style:normal;font-variant:normal;font-weight:normal;font-stretch:normal;line-height:0%;font-family:Ubuntu;-inkscape-font-specification:Ubuntu;stroke-width:0.37933123px">CLIMATECONTROL</tspan></text>

<g
   style="stroke-width:1.36644959"
   transform="matrix(0.73182353,0,0,0.73182353,20,20)"
   id="g197"><g
     style="stroke-width:1.36644959"
     id="g193"
     transform="translate(3.9175339,-2.072)">
	<g
   style="stroke-width:1.36644959"
   id="g191">
		<path
   style="fill:#010002;stroke-width:1.36644959"
   d="m 99.60612,79.429 c -14.657166,0 -26.58623,11.683269 -26.58623,26.04974 0,14.36647 11.92602,26.06344 26.58623,26.06344 14.65488,0 26.57786,-11.69697 26.57786,-26.06344 0,-14.368754 -11.92298,-26.04974 -26.57786,-26.04974 z m 0,46.88071 c -11.770783,0 -21.34082,-9.34936 -21.34082,-20.83173 0,-11.476284 9.570037,-20.814985 21.34082,-20.814985 11.76545,0 21.33549,9.338701 21.33549,20.814985 0,11.48541 -9.5708,20.83173 -21.33549,20.83173 z"
   id="path187"
   inkscape:connector-curvature="0" />
		<path
   style="fill:#010002;stroke-width:1.36644959"
   d="m 174.69389,77.21 -0.97,-0.344 -3.783,-9.019 0.412,-0.927 c 11.442,-25.947 10.658,-26.723 8.754,-28.606 l -15.264,-14.888 c -0.623,-0.616 -1.714,-1.052 -2.663,-1.052 -0.855,0 -3.461,0 -26.004,10.21 l -0.902,0.404 -9.301,-3.747 -0.376,-0.923 c -10.593,-26.246 -11.685,-26.246 -14.322,-26.246 h -21.556 c -2.627,0 -3.826,0 -13.653,26.294 l -0.369,0.956 -9.251,3.772 -0.884,-0.369 c -15.257,-6.435 -24.164,-9.695 -26.487,-9.695 -0.945,0 -2.04,0.422 -2.67,1.041 l -15.274,14.931 c -1.94,1.911 -2.741,2.709 9.301,28.119 l 0.444,0.945 -3.783,9.004 -0.927,0.358 C -1.7041099,87.814 -1.7041099,88.824 -1.7041099,91.533 v 21.112 c 0,2.713 0,3.837 26.9169999,13.485 l 0.963,0.34 3.783,8.983 -0.404,0.92 c -11.445,25.961 -10.719,26.662 -8.768,28.599 l 15.239,14.913 c 0.641,0.616 1.743,1.052 2.684,1.052 0.852,0 3.45,0 26.004,-10.203 l 0.902,-0.426 9.309,3.765 0.365,0.934 c 10.608,26.24 11.699,26.24 14.337,26.24 h 21.563 c 2.706,0 3.822,0 13.66,-26.315 l 0.372,-0.956 9.266,-3.754 0.884,0.365 c 15.246,6.453 24.147,9.706 26.458,9.706 0.938,0 2.044,-0.408 2.681,-1.041 l 15.303,-14.96 c 1.925,-1.922 2.724,-2.713 -9.337,-28.094 l -0.447,-0.956 3.779,-8.969 0.902,-0.354 c 26.906,-10.432 26.906,-11.449 26.906,-14.158 V 90.659 c -0.007,-2.716 -0.007,-3.836 -26.923,-13.449 z m -6.657,45.04 -4.946,11.764 c -0.379,0.895 -0.358,1.922 0.068,2.82 3.482,7.283 8.085,17.415 9.985,22.404 l 0.537,1.417 -12.805,12.526 -1.342,-0.447 c -5.071,-1.718 -15.815,-6.077 -23.649,-9.405 -0.805,-0.34 -1.814,-0.365 -2.67,-0.011 l -11.993,4.849 c -0.898,0.365 -1.603,1.092 -1.94,1.986 -3.386,9.126 -7.247,18.735 -9.176,22.865 l -0.626,1.342 h -18.177 l -0.637,-1.267 c -2.38,-4.731 -6.807,-15.203 -9.913,-22.923 -0.333,-0.859 -1.031,-1.564 -1.9,-1.925 l -12.036,-4.874 c -0.805,-0.329 -1.9,-0.293 -2.724,0.072 -7.727,3.536 -18.123,8.049 -23.069,9.853 l -1.374,0.512 -12.812,-12.54 0.497,-1.406 c 1.718,-4.874 6.088,-15.249 9.52,-22.983 0.379,-0.87 0.394,-1.829 0.025,-2.713 l -4.942,-11.739 c -0.376,-0.895 -1.102,-1.585 -2.022,-1.911 -7.831,-2.795 -18.478,-6.8 -23.3589999,-8.994 l -1.364,-0.626 v -17.64 l 1.328,-0.637 C 11.26689,90.375 21.89189,86.059 29.92289,82.956 c 0.884,-0.34 1.575,-0.998 1.94,-1.865 l 4.967,-11.764 c 0.379,-0.905 0.358,-1.933 -0.061,-2.827 -4.141,-8.661 -8.335,-18.095 -9.981,-22.414 l -0.544,-1.421 12.798,-12.515 1.338,0.447 c 4.95,1.657 15.668,5.977 23.692,9.398 0.848,0.351 1.789,0.358 2.652,0.011 l 11.996,-4.871 c 0.87,-0.365 1.578,-1.102 1.911,-1.986 2.845,-7.637 6.925,-18.045 9.173,-22.858 l 0.623,-1.342 h 18.177 l 0.651,1.285 c 2.351,4.713 6.778,15.203 9.888,22.948 0.347,0.855 1.052,1.557 1.9,1.9 l 12.014,4.853 c 0.83,0.344 1.933,0.315 2.702,-0.043 7.78,-3.554 18.227,-8.077 23.116,-9.856 l 1.381,-0.483 12.809,12.49 -0.497,1.406 c -1.746,4.924 -6.109,15.292 -9.516,22.983 -0.387,0.877 -0.387,1.854 -0.018,2.756 l 4.942,11.76 c 0.372,0.891 1.102,1.585 2.022,1.918 9.427,3.343 19.022,7.015 23.345,8.947 l 1.385,0.623 v 17.608 l -1.317,0.644 c -4.86,2.323 -15.561,6.642 -23.445,9.695 -0.851,0.314 -1.578,1.019 -1.929,1.867 z"
   id="path189"
   inkscape:connector-curvature="0" />
	</g>
</g><path
     inkscape:connector-curvature="0"
     d="m 205.02906,33.140862 h -8.09098 C 193.49665,24.889186 186.60017,18.632634 175.45517,16.852017 166.98899,15.49826 144.76642,15.205555 144.76642,15.205555 H 62.981424 c 0,0 -22.222563,0.292705 -30.688028,1.646462 -11.144999,1.780617 -18.041484,8.037169 -21.48291,16.288845 H 2.7187924 c -3.16952741,0 -2.69337593,2.133032 -2.69337593,5.30256 0,3.169527 1.52384853,6.176037 4.69337573,6.176037 H 8.1574949 C 7.4329085,55.067851 10.445323,66.30468 15.504514,74.647467 28.100839,95.424444 55.123607,104.24862 82.5223,76.0744 91.219489,67.133291 95.452939,55.653554 97.520521,48.129334 c 0,0 0.357271,0.230863 0.546668,-0.360285 0.784849,-2.45355 3.064071,-4.43289 5.747191,-4.43289 h 0.11909 c 2.61784,0 4.85186,1.919078 5.68764,4.284386 0.22671,0.644236 0.57967,0.361719 0.58972,0.401177 2.06184,7.542873 6.29601,19.159636 15.01472,28.122985 27.39869,28.172783 54.42146,19.250323 67.01778,-1.525219 5.08,-8.378658 7.72582,-19.994997 7.2265,-30.000029 h 3.55922 c 3.16953,0 5.17042,-2.133039 5.17042,-5.302566 0,-3.169528 -7.1e-4,-6.176031 -3.17041,-6.176031 z M 109.69931,34.877 c -1.80644,-0.63204 -3.74633,-1.018725 -5.76584,-1.018725 h -0.11909 c -2.01952,0 -3.9594,0.386685 -5.765844,1.018725 -0.747543,-3.051872 -1.990819,-9.323196 -3.694673,-12.192845 H 113.3947 c -1.70457,2.869649 -2.94784,9.140973 -3.69539,12.192845 z"
     id="path195"
     style="stroke-width:1.36644959"
     sodipodi:nodetypes="sccccccssscccccsscccccssscsscccc" /></g><text
   id="text201"
   y="147.83466"
   x="181.51971"
   style="font-style:normal;font-variant:normal;font-weight:normal;font-stretch:normal;font-size:62.92346191px;line-height:0%;font-family:'IBM 3270 Narrow';-inkscape-font-specification:'IBM 3270 Narrow';letter-spacing:0px;word-spacing:0px;fill:#000000;fill-opacity:1;stroke:none;stroke-width:0.37933123px;stroke-linecap:butt;stroke-linejoin:miter;stroke-opacity:1"
   xml:space="preserve"><tspan
     style="font-style:normal;font-variant:normal;font-weight:normal;font-stretch:normal;line-height:0%;font-family:Ubuntu;-inkscape-font-specification:Ubuntu;stroke-width:0.37933123px"
     y="147.83466"
     x="181.51971"
     id="tspan199"
     sodipodi:role="line">CLIMATECONTROL</tspan></text>
</svg>